<mxfile host="Electron" agent="Mozilla/5.0 (Windows NT 10.0; Win64; x64) AppleWebKit/537.36 (KHTML, like Gecko) draw.io/24.7.17 Chrome/128.0.6613.36 Electron/32.0.1 Safari/537.36" version="24.7.17">
  <diagram name="Page-1" id="LPT-VXJMkO-i87ZpgcVu">
    <mxGraphModel dx="1434" dy="844" grid="1" gridSize="10" guides="1" tooltips="1" connect="1" arrows="1" fold="1" page="1" pageScale="1" pageWidth="850" pageHeight="1100" math="0" shadow="0">
      <root>
        <mxCell id="0" />
        <mxCell id="1" parent="0" />
        <mxCell id="wpgfziIOmSFsvqhEl-EZ-4" value="&lt;div&gt;&lt;b&gt;Thermistor&lt;/b&gt;&lt;/div&gt;(thermo.c)&lt;br&gt;(thermo.h)" style="rounded=0;whiteSpace=wrap;html=1;strokeColor=default;" parent="1" vertex="1">
          <mxGeometry x="80" y="400" width="120" height="80" as="geometry" />
        </mxCell>
        <mxCell id="wpgfziIOmSFsvqhEl-EZ-5" value="thermo_init" style="rounded=0;whiteSpace=wrap;html=1;fillColor=#fff2cc;strokeColor=default;" parent="1" vertex="1">
          <mxGeometry x="80" y="480" width="120" height="40" as="geometry" />
        </mxCell>
        <mxCell id="wpgfziIOmSFsvqhEl-EZ-6" value="thermo_getADC" style="rounded=0;whiteSpace=wrap;html=1;fillColor=#f8cecc;strokeColor=default;" parent="1" vertex="1">
          <mxGeometry x="80" y="520" width="120" height="40" as="geometry" />
        </mxCell>
        <mxCell id="wpgfziIOmSFsvqhEl-EZ-7" value="&lt;div&gt;&lt;b&gt;System Clock&lt;/b&gt;&lt;/div&gt;(infra.c)&lt;br&gt;(infra.h)" style="rounded=0;whiteSpace=wrap;html=1;strokeColor=default;" parent="1" vertex="1">
          <mxGeometry x="400" y="600" width="120" height="80" as="geometry" />
        </mxCell>
        <mxCell id="wpgfziIOmSFsvqhEl-EZ-8" value="initSystemClock&lt;div&gt;To40Mhz&lt;/div&gt;" style="rounded=0;whiteSpace=wrap;html=1;fillColor=#fff2cc;strokeColor=default;" parent="1" vertex="1">
          <mxGeometry x="400" y="680" width="120" height="40" as="geometry" />
        </mxCell>
        <mxCell id="wpgfziIOmSFsvqhEl-EZ-13" value="&lt;div&gt;&lt;b&gt;UART Interface&lt;/b&gt;&lt;/div&gt;(interface.c)&lt;br&gt;(interface.h)" style="rounded=0;whiteSpace=wrap;html=1;strokeColor=default;" parent="1" vertex="1">
          <mxGeometry x="240" y="160" width="120" height="80" as="geometry" />
        </mxCell>
        <mxCell id="wpgfziIOmSFsvqhEl-EZ-14" value="inf_init" style="rounded=0;whiteSpace=wrap;html=1;fillColor=#fff2cc;strokeColor=default;" parent="1" vertex="1">
          <mxGeometry x="240" y="240" width="120" height="40" as="geometry" />
        </mxCell>
        <mxCell id="wpgfziIOmSFsvqhEl-EZ-15" value="inf_getCommand" style="rounded=0;whiteSpace=wrap;html=1;fontStyle=0;fillColor=#f8cecc;strokeColor=default;" parent="1" vertex="1">
          <mxGeometry x="240" y="280" width="120" height="40" as="geometry" />
        </mxCell>
        <mxCell id="wpgfziIOmSFsvqhEl-EZ-16" value="inf_parseCommand" style="rounded=0;whiteSpace=wrap;html=1;fontStyle=0;fillColor=#f8cecc;strokeColor=default;" parent="1" vertex="1">
          <mxGeometry x="240" y="320" width="120" height="40" as="geometry" />
        </mxCell>
        <mxCell id="wpgfziIOmSFsvqhEl-EZ-17" value="inf_doCommand" style="rounded=0;whiteSpace=wrap;html=1;fontStyle=0;fillColor=#f8cecc;strokeColor=default;" parent="1" vertex="1">
          <mxGeometry x="240" y="360" width="120" height="40" as="geometry" />
        </mxCell>
        <mxCell id="wpgfziIOmSFsvqhEl-EZ-26" value="&lt;div&gt;&lt;b&gt;Heater&lt;/b&gt;&lt;/div&gt;(heater.c)&lt;br&gt;(heater.h)" style="rounded=0;whiteSpace=wrap;html=1;strokeColor=default;" parent="1" vertex="1">
          <mxGeometry x="240" y="440" width="120" height="80" as="geometry" />
        </mxCell>
        <mxCell id="wpgfziIOmSFsvqhEl-EZ-27" value="heater_init" style="rounded=0;whiteSpace=wrap;html=1;fillColor=#fff2cc;strokeColor=default;" parent="1" vertex="1">
          <mxGeometry x="240" y="520" width="120" height="40" as="geometry" />
        </mxCell>
        <mxCell id="wpgfziIOmSFsvqhEl-EZ-28" value="heater_on" style="rounded=0;whiteSpace=wrap;html=1;fillColor=#f8cecc;strokeColor=default;" parent="1" vertex="1">
          <mxGeometry x="240" y="560" width="120" height="40" as="geometry" />
        </mxCell>
        <mxCell id="wpgfziIOmSFsvqhEl-EZ-30" value="&lt;div&gt;&lt;b&gt;Main&lt;/b&gt;&lt;/div&gt;(main.c)&lt;br&gt;(main.h)" style="rounded=0;whiteSpace=wrap;html=1;strokeColor=default;" parent="1" vertex="1">
          <mxGeometry x="80" y="160" width="120" height="80" as="geometry" />
        </mxCell>
        <mxCell id="wpgfziIOmSFsvqhEl-EZ-31" value="hardware_init" style="rounded=0;whiteSpace=wrap;html=1;fillColor=#fff2cc;strokeColor=default;" parent="1" vertex="1">
          <mxGeometry x="80" y="240" width="120" height="40" as="geometry" />
        </mxCell>
        <mxCell id="wpgfziIOmSFsvqhEl-EZ-35" value="main" style="rounded=0;whiteSpace=wrap;html=1;fillColor=#dae8fc;strokeColor=default;" parent="1" vertex="1">
          <mxGeometry x="80" y="320" width="120" height="40" as="geometry" />
        </mxCell>
        <mxCell id="wpgfziIOmSFsvqhEl-EZ-36" value="tick_ISR" style="rounded=0;whiteSpace=wrap;html=1;fillColor=#dae8fc;strokeColor=default;" parent="1" vertex="1">
          <mxGeometry x="80" y="280" width="120" height="40" as="geometry" />
        </mxCell>
        <mxCell id="wpgfziIOmSFsvqhEl-EZ-38" value="&lt;div&gt;&lt;b&gt;System Tick&lt;/b&gt;&lt;/div&gt;(tick.c)&lt;br&gt;(tick.h)" style="rounded=0;whiteSpace=wrap;html=1;strokeColor=default;" parent="1" vertex="1">
          <mxGeometry x="400" y="760" width="120" height="80" as="geometry" />
        </mxCell>
        <mxCell id="wpgfziIOmSFsvqhEl-EZ-39" value="tick_init" style="rounded=0;whiteSpace=wrap;html=1;fillColor=#fff2cc;strokeColor=default;" parent="1" vertex="1">
          <mxGeometry x="400" y="840" width="120" height="40" as="geometry" />
        </mxCell>
        <mxCell id="WWMrw_l2_zWXb0vZIjVV-7" value="thermo_getTEMP" style="rounded=0;whiteSpace=wrap;html=1;fillColor=#f8cecc;strokeColor=default;" parent="1" vertex="1">
          <mxGeometry x="80" y="560" width="120" height="40" as="geometry" />
        </mxCell>
        <mxCell id="WWMrw_l2_zWXb0vZIjVV-11" value="heater_off" style="rounded=0;whiteSpace=wrap;html=1;fillColor=#f8cecc;strokeColor=default;" parent="1" vertex="1">
          <mxGeometry x="240" y="600" width="120" height="40" as="geometry" />
        </mxCell>
        <mxCell id="WWMrw_l2_zWXb0vZIjVV-12" value="Setup" style="rounded=0;whiteSpace=wrap;html=1;fillColor=#fff2cc;strokeColor=default;" parent="1" vertex="1">
          <mxGeometry x="680" y="480" width="120" height="40" as="geometry" />
        </mxCell>
        <mxCell id="WWMrw_l2_zWXb0vZIjVV-14" value="Operation" style="rounded=0;whiteSpace=wrap;html=1;fillColor=#f8cecc;strokeColor=default;" parent="1" vertex="1">
          <mxGeometry x="680" y="560" width="120" height="40" as="geometry" />
        </mxCell>
        <mxCell id="WWMrw_l2_zWXb0vZIjVV-15" value="Control" style="rounded=0;whiteSpace=wrap;html=1;fillColor=#dae8fc;strokeColor=default;" parent="1" vertex="1">
          <mxGeometry x="680" y="520" width="120" height="40" as="geometry" />
        </mxCell>
        <mxCell id="WWMrw_l2_zWXb0vZIjVV-16" value="Module Name" style="rounded=0;whiteSpace=wrap;html=1;strokeColor=default;" parent="1" vertex="1">
          <mxGeometry x="680" y="440" width="120" height="40" as="geometry" />
        </mxCell>
        <mxCell id="yQ8iqKuHG4hW6nG3QDGw-1" value="&lt;div&gt;&lt;b&gt;Button&lt;/b&gt;&lt;/div&gt;(button.c)&lt;br&gt;(button.h)" style="rounded=0;whiteSpace=wrap;html=1;strokeColor=default;" vertex="1" parent="1">
          <mxGeometry x="240" y="680" width="120" height="80" as="geometry" />
        </mxCell>
        <mxCell id="yQ8iqKuHG4hW6nG3QDGw-3" value="button_init" style="rounded=0;whiteSpace=wrap;html=1;fillColor=#fff2cc;strokeColor=default;" vertex="1" parent="1">
          <mxGeometry x="240" y="760" width="120" height="40" as="geometry" />
        </mxCell>
        <mxCell id="yQ8iqKuHG4hW6nG3QDGw-4" value="button_status" style="rounded=0;whiteSpace=wrap;html=1;fillColor=#f8cecc;strokeColor=default;" vertex="1" parent="1">
          <mxGeometry x="240" y="800" width="120" height="40" as="geometry" />
        </mxCell>
        <mxCell id="yQ8iqKuHG4hW6nG3QDGw-5" value="&lt;div&gt;&lt;b&gt;EEPROM&lt;/b&gt;&lt;/div&gt;(eeprom.c)&lt;br&gt;(eeprom.h)" style="rounded=0;whiteSpace=wrap;html=1;strokeColor=default;" vertex="1" parent="1">
          <mxGeometry x="400" y="360" width="120" height="80" as="geometry" />
        </mxCell>
        <mxCell id="yQ8iqKuHG4hW6nG3QDGw-6" value="eeprom_init" style="rounded=0;whiteSpace=wrap;html=1;fillColor=#fff2cc;strokeColor=default;" vertex="1" parent="1">
          <mxGeometry x="400" y="440" width="120" height="40" as="geometry" />
        </mxCell>
        <mxCell id="yQ8iqKuHG4hW6nG3QDGw-7" value="eeprom_write" style="rounded=0;whiteSpace=wrap;html=1;fillColor=#f8cecc;strokeColor=default;" vertex="1" parent="1">
          <mxGeometry x="400" y="480" width="120" height="40" as="geometry" />
        </mxCell>
        <mxCell id="yQ8iqKuHG4hW6nG3QDGw-8" value="eeprom_read" style="rounded=0;whiteSpace=wrap;html=1;fillColor=#f8cecc;strokeColor=default;" vertex="1" parent="1">
          <mxGeometry x="400" y="520" width="120" height="40" as="geometry" />
        </mxCell>
        <mxCell id="yQ8iqKuHG4hW6nG3QDGw-9" value="&lt;div&gt;&lt;span style=&quot;background-color: initial;&quot;&gt;&lt;b&gt;Infrared&lt;/b&gt;&lt;/span&gt;&lt;/div&gt;&lt;div&gt;&lt;span style=&quot;background-color: initial;&quot;&gt;(infra.c)&lt;/span&gt;&lt;br&gt;&lt;/div&gt;(infra.h)" style="rounded=0;whiteSpace=wrap;html=1;strokeColor=default;" vertex="1" parent="1">
          <mxGeometry x="80" y="640" width="120" height="80" as="geometry" />
        </mxCell>
        <mxCell id="yQ8iqKuHG4hW6nG3QDGw-10" value="infra_init" style="rounded=0;whiteSpace=wrap;html=1;fillColor=#fff2cc;strokeColor=default;" vertex="1" parent="1">
          <mxGeometry x="80" y="720" width="120" height="40" as="geometry" />
        </mxCell>
        <mxCell id="yQ8iqKuHG4hW6nG3QDGw-11" value="infra_read" style="rounded=0;whiteSpace=wrap;html=1;fillColor=#f8cecc;strokeColor=default;" vertex="1" parent="1">
          <mxGeometry x="80" y="760" width="120" height="40" as="geometry" />
        </mxCell>
        <mxCell id="yQ8iqKuHG4hW6nG3QDGw-14" value="&lt;div&gt;&lt;b&gt;LCD&lt;/b&gt;&lt;/div&gt;(lcd.c)&lt;br&gt;(lcd.h)" style="rounded=0;whiteSpace=wrap;html=1;strokeColor=default;" vertex="1" parent="1">
          <mxGeometry x="400" y="160" width="120" height="80" as="geometry" />
        </mxCell>
        <mxCell id="yQ8iqKuHG4hW6nG3QDGw-15" value="lcd_init" style="rounded=0;whiteSpace=wrap;html=1;fillColor=#fff2cc;strokeColor=default;" vertex="1" parent="1">
          <mxGeometry x="400" y="240" width="120" height="40" as="geometry" />
        </mxCell>
        <mxCell id="yQ8iqKuHG4hW6nG3QDGw-16" value="lcd_print" style="rounded=0;whiteSpace=wrap;html=1;fillColor=#f8cecc;strokeColor=default;" vertex="1" parent="1">
          <mxGeometry x="400" y="280" width="120" height="40" as="geometry" />
        </mxCell>
      </root>
    </mxGraphModel>
  </diagram>
</mxfile>
